<svg width="1080" height="540" viewBox="0 0 1080 540" fill="none" xmlns="http://www.w3.org/2000/svg">
<path d="M17.3953 204.375H0V540H1080V176.323H1074.04V179.829H1069.56V182.835H1064.1V161.295H1058.13V152.278H1018.37V197.863H1003.46V232.928H997V230.924H994.017V226.917H983.083V223.41H977.616V218.401H971.652V238.438H963.7V201.87H946.305V238.438H940.838V98.1772H887.161V155.785H878.711V195.358H851.873V130.738H841.436V168.308H812.112V160.794H798.196V168.308H796.705V171.313H788.753V168.308H785.274V163.298H777.322V195.358H763.405V211.889H760.92V214.394H755.453V223.911H747.501V201.87H744.519V198.865H742.034V193.354H739.052V198.364H737.064V204.876H734.579V221.407H725.136V143.261H688.854V160.293H684.381V187.844H666.986V143.261H642.135V109.198H612.812V127.732H575.039V94.6707H567.584V64.6147H562.117V58.1026H497.506V100.682H494.027V187.844H487.566V204.876H478.619V109.198H446.811V211.388H441.841V204.876H435.877V198.364H429.913V114.207H420.966V109.198H393.134V58.1026H372.26V152.278H364.307V160.293H349.894V74.1325H323.553V204.876H316.595V198.364H303.672V176.824H294.229V171.814H290.75V114.207H252.977V165.302H250.492V168.809H245.025V114.207H211.229V157.287H200.792V176.824H192.839V187.844H188.366V224.412H178.923V157.287H175.444V142.259H170.971V138.252H167.492V107.194H164.51V104.689H161.528V100.682H158.546V82.1474H156.061V68.6222H152.085V50.0877H148.606V36.0616H146.618V3H144.133V50.0877H141.647V53.5942H138.665V68.6222H133.695V77.639H130.713V88.1586H128.228V109.198H124.749V138.252H117.791V145.265H111.33V219.904H107.354V224.412H102.881V215.396H98.9047V149.773H32.3056V230.924H17.3953V204.375Z" fill="url(#paint0_linear)"/>
<defs>
<linearGradient id="paint0_linear" x1="540" y1="3" x2="540" y2="271" gradientUnits="userSpaceOnUse">
<stop offset="0.322917" stop-color="#7886FF" stop-opacity="0.3"/>
<stop offset="0.958333" stop-color="#7886FF" stop-opacity="0"/>
</linearGradient>
</defs>
</svg>
